<svg xmlns="http://www.w3.org/2000/svg" version="1.1" xmlns:xlink="http://www.w3.org/1999/xlink"
    xmlns:svgjs="http://svgjs.dev/svgjs" viewBox="0 0 800 800" width="800" height="800" opacity=".1">
    <g stroke-width="0.5" stroke="hsl(174, 97%, 43%)" fill="none">
        <rect width="100" height="1" x="-50" y="-0.5" stroke="none" fill="hsl(174, 97%, 43%)" rx="0.5"></rect>
        <rect width="1" height="100" x="-0.5" y="-50" stroke="none" fill="hsl(174, 97%, 43%)" rx="0.5"></rect>
        <rect width="100" height="1" x="150" y="-0.5" stroke="none" fill="hsl(174, 97%, 43%)" rx="0.5"></rect>
        <rect width="1" height="100" x="199.5" y="-50" stroke="none" fill="hsl(174, 97%, 43%)" rx="0.5"></rect>
        <rect width="100" height="1" x="350" y="-0.5" stroke="none" fill="hsl(174, 97%, 43%)" rx="0.5"></rect>
        <rect width="1" height="100" x="399.5" y="-50" stroke="none" fill="hsl(174, 97%, 43%)" rx="0.5"></rect>
        <rect width="100" height="1" x="550" y="-0.5" stroke="none" fill="hsl(174, 97%, 43%)" rx="0.5"></rect>
        <rect width="1" height="100" x="599.5" y="-50" stroke="none" fill="hsl(174, 97%, 43%)" rx="0.5"></rect>
        <rect width="100" height="1" x="750" y="-0.5" stroke="none" fill="hsl(174, 97%, 43%)" rx="0.5"></rect>
        <rect width="1" height="100" x="799.5" y="-50" stroke="none" fill="hsl(174, 97%, 43%)" rx="0.5"></rect>
        <rect width="100" height="1" x="-50" y="199.5" stroke="none" fill="hsl(174, 97%, 43%)" rx="0.5"></rect>
        <rect width="1" height="100" x="-0.5" y="150" stroke="none" fill="hsl(174, 97%, 43%)" rx="0.5"></rect>
        <rect width="100" height="1" x="150" y="199.5" stroke="none" fill="hsl(174, 97%, 43%)" rx="0.5"></rect>
        <rect width="1" height="100" x="199.5" y="150" stroke="none" fill="hsl(174, 97%, 43%)" rx="0.5"></rect>
        <rect width="100" height="1" x="350" y="199.5" stroke="none" fill="hsl(174, 97%, 43%)" rx="0.5"></rect>
        <rect width="1" height="100" x="399.5" y="150" stroke="none" fill="hsl(174, 97%, 43%)" rx="0.5"></rect>
        <rect width="100" height="1" x="550" y="199.5" stroke="none" fill="hsl(174, 97%, 43%)" rx="0.5"></rect>
        <rect width="1" height="100" x="599.5" y="150" stroke="none" fill="hsl(174, 97%, 43%)" rx="0.5"></rect>
        <rect width="100" height="1" x="750" y="199.5" stroke="none" fill="hsl(174, 97%, 43%)" rx="0.5"></rect>
        <rect width="1" height="100" x="799.5" y="150" stroke="none" fill="hsl(174, 97%, 43%)" rx="0.5"></rect>
        <rect width="100" height="1" x="-50" y="399.5" stroke="none" fill="hsl(174, 97%, 43%)" rx="0.5"></rect>
        <rect width="1" height="100" x="-0.5" y="350" stroke="none" fill="hsl(174, 97%, 43%)" rx="0.5"></rect>
        <rect width="100" height="1" x="150" y="399.5" stroke="none" fill="hsl(174, 97%, 43%)" rx="0.5"></rect>
        <rect width="1" height="100" x="199.5" y="350" stroke="none" fill="hsl(174, 97%, 43%)" rx="0.5"></rect>
        <rect width="100" height="1" x="350" y="399.5" stroke="none" fill="hsl(174, 97%, 43%)" rx="0.5"></rect>
        <rect width="1" height="100" x="399.5" y="350" stroke="none" fill="hsl(174, 97%, 43%)" rx="0.5"></rect>
        <rect width="100" height="1" x="550" y="399.5" stroke="none" fill="hsl(174, 97%, 43%)" rx="0.5"></rect>
        <rect width="1" height="100" x="599.5" y="350" stroke="none" fill="hsl(174, 97%, 43%)" rx="0.5"></rect>
        <rect width="100" height="1" x="750" y="399.5" stroke="none" fill="hsl(174, 97%, 43%)" rx="0.5"></rect>
        <rect width="1" height="100" x="799.5" y="350" stroke="none" fill="hsl(174, 97%, 43%)" rx="0.5"></rect>
        <rect width="100" height="1" x="-50" y="599.5" stroke="none" fill="hsl(174, 97%, 43%)" rx="0.5"></rect>
        <rect width="1" height="100" x="-0.5" y="550" stroke="none" fill="hsl(174, 97%, 43%)" rx="0.5"></rect>
        <rect width="100" height="1" x="150" y="599.5" stroke="none" fill="hsl(174, 97%, 43%)" rx="0.5"></rect>
        <rect width="1" height="100" x="199.5" y="550" stroke="none" fill="hsl(174, 97%, 43%)" rx="0.5"></rect>
        <rect width="100" height="1" x="350" y="599.5" stroke="none" fill="hsl(174, 97%, 43%)" rx="0.5"></rect>
        <rect width="1" height="100" x="399.5" y="550" stroke="none" fill="hsl(174, 97%, 43%)" rx="0.5"></rect>
        <rect width="100" height="1" x="550" y="599.5" stroke="none" fill="hsl(174, 97%, 43%)" rx="0.5"></rect>
        <rect width="1" height="100" x="599.5" y="550" stroke="none" fill="hsl(174, 97%, 43%)" rx="0.5"></rect>
        <rect width="100" height="1" x="750" y="599.5" stroke="none" fill="hsl(174, 97%, 43%)" rx="0.5"></rect>
        <rect width="1" height="100" x="799.5" y="550" stroke="none" fill="hsl(174, 97%, 43%)" rx="0.5"></rect>
        <rect width="100" height="1" x="-50" y="799.5" stroke="none" fill="hsl(174, 97%, 43%)" rx="0.5"></rect>
        <rect width="1" height="100" x="-0.5" y="750" stroke="none" fill="hsl(174, 97%, 43%)" rx="0.5"></rect>
        <rect width="100" height="1" x="150" y="799.5" stroke="none" fill="hsl(174, 97%, 43%)" rx="0.5"></rect>
        <rect width="1" height="100" x="199.5" y="750" stroke="none" fill="hsl(174, 97%, 43%)" rx="0.5"></rect>
        <rect width="100" height="1" x="350" y="799.5" stroke="none" fill="hsl(174, 97%, 43%)" rx="0.5"></rect>
        <rect width="1" height="100" x="399.5" y="750" stroke="none" fill="hsl(174, 97%, 43%)" rx="0.5"></rect>
        <rect width="100" height="1" x="550" y="799.5" stroke="none" fill="hsl(174, 97%, 43%)" rx="0.5"></rect>
        <rect width="1" height="100" x="599.5" y="750" stroke="none" fill="hsl(174, 97%, 43%)" rx="0.5"></rect>
        <rect width="100" height="1" x="750" y="799.5" stroke="none" fill="hsl(174, 97%, 43%)" rx="0.5"></rect>
        <rect width="1" height="100" x="799.5" y="750" stroke="none" fill="hsl(174, 97%, 43%)" rx="0.5"></rect>
    </g>
</svg>